<?xml version="1.0" standalone="no"?>
<!DOCTYPE svg PUBLIC "-//W3C//DTD SVG 20010904//EN"
 "http://www.w3.org/TR/2001/REC-SVG-20010904/DTD/svg10.dtd">
<svg version="1.0" xmlns="http://www.w3.org/2000/svg"
 width="16px" height="50.000000pt" viewBox="0 0 50.000000 50.000000"
 preserveAspectRatio="xMidYMid meet">

<g transform="translate(0.000000,50.000000) scale(0.100000,-0.100000)"
fill="#000000" stroke="none">
<path d="M16 484 c-12 -12 -16 -38 -16 -113 0 -85 3 -102 23 -132 18 -27 30
-35 60 -37 21 -2 37 1 37 7 0 6 -13 11 -29 11 -17 0 -33 4 -36 10 -4 7 63 10
195 10 132 0 199 -3 195 -10 -3 -6 -19 -10 -36 -10 -16 0 -29 -5 -29 -11 0 -6
16 -9 37 -7 30 2 42 10 60 37 20 30 23 47 23 132 0 75 -4 101 -16 113 -23 24
-445 24 -468 0z m384 -59 c0 -8 6 -12 13 -9 10 3 14 -4 14 -26 0 -22 -4 -29
-14 -26 -7 3 -13 -1 -13 -9 0 -8 -4 -15 -10 -15 -5 0 -10 7 -10 15 0 8 -6 12
-13 9 -10 -3 -14 4 -14 26 0 22 4 29 14 26 7 -3 13 1 13 9 0 8 5 15 10 15 6 0
10 -7 10 -15z m75 -155 c-8 -14 -442 -14 -450 0 -4 7 73 10 225 10 152 0 229
-3 225 -10z"/>
<path d="M144 209 c-10 -17 13 -36 27 -22 12 12 4 33 -11 33 -5 0 -12 -5 -16
-11z"/>
<path d="M234 209 c-10 -17 13 -36 27 -22 12 12 4 33 -11 33 -5 0 -12 -5 -16
-11z"/>
<path d="M324 209 c-10 -17 13 -36 27 -22 12 12 4 33 -11 33 -5 0 -12 -5 -16
-11z"/>
<path d="M134 149 c-10 -17 13 -36 27 -22 12 12 4 33 -11 33 -5 0 -12 -5 -16
-11z"/>
<path d="M234 149 c-10 -17 13 -36 27 -22 12 12 4 33 -11 33 -5 0 -12 -5 -16
-11z"/>
<path d="M334 149 c-10 -17 13 -36 27 -22 12 12 4 33 -11 33 -5 0 -12 -5 -16
-11z"/>
<path d="M114 89 c-10 -17 13 -36 27 -22 12 12 4 33 -11 33 -5 0 -12 -5 -16
-11z"/>
<path d="M234 89 c-10 -17 13 -36 27 -22 12 12 4 33 -11 33 -5 0 -12 -5 -16
-11z"/>
<path d="M354 89 c-10 -17 13 -36 27 -22 12 12 4 33 -11 33 -5 0 -12 -5 -16
-11z"/>
<path d="M74 29 c-10 -17 13 -36 27 -22 12 12 4 33 -11 33 -5 0 -12 -5 -16
-11z"/>
<path d="M234 29 c-10 -17 13 -36 27 -22 12 12 4 33 -11 33 -5 0 -12 -5 -16
-11z"/>
<path d="M394 29 c-10 -17 13 -36 27 -22 12 12 4 33 -11 33 -5 0 -12 -5 -16
-11z"/>
</g>
</svg>
